<?xml version="1.0" encoding="iso-8859-1"?>
<!-- Generator: Adobe Illustrator 19.0.0, SVG Export Plug-In . SVG Version: 6.00 Build 0)  -->
<svg version="1.1" id="Layer_1" xmlns="http://www.w3.org/2000/svg" xmlns:xlink="http://www.w3.org/1999/xlink" x="0px" y="0px"
	 viewBox="0 0 512 512" style="enable-background:new 0 0 512 512;" xml:space="preserve">
<g>
	<g>
		<g>
			<path d="M337.322,419.445c-18.438,0-33.438,15-33.438,33.437c0,18.438,15,33.438,33.438,33.438c18.438,0,33.438-15,33.438-33.438
				C370.759,434.445,355.759,419.445,337.322,419.445z M337.322,470.805c-9.883,0-17.923-8.04-17.923-17.923
				c0-9.883,8.04-17.922,17.923-17.922c9.883,0,17.923,8.039,17.923,17.922C355.244,462.764,347.204,470.805,337.322,470.805z"/>
			<path d="M337.322,393.764c-6.09,0-12.139,0.956-17.923,2.807V93.359C319.399,41.881,277.518,0,226.041,0h-7.758v29.084
				c-16.573,17.419-25.681,40.105-25.681,64.275v303.213c-5.784-1.852-11.833-2.807-17.923-2.807
				c-32.598,0-59.118,26.521-59.118,59.118c0,32.598,26.521,59.118,59.118,59.118s59.118-26.521,59.118-59.118v-77.04
				c0-17.214,8.225-32.906,22.174-42.682c13.43,9.447,22.231,25.052,22.231,42.682v77.04c0,32.598,26.521,59.118,59.118,59.118
				s59.118-26.521,59.118-59.118C396.44,420.284,369.919,393.764,337.322,393.764z M218.283,375.841v77.04
				c0,24.042-19.56,43.603-43.603,43.603s-43.603-19.56-43.603-43.603c0-24.042,19.56-43.603,43.603-43.603
				c7.613,0,15.149,2.035,21.792,5.881l11.646,6.746V93.359c0-13.741,3.544-26.901,10.166-38.495v268.815h7.758
				c4.996,0,9.824,0.721,14.402,2.038C226.383,338.405,218.283,356.375,218.283,375.841z M337.322,496.485
				c-24.043,0-43.603-19.56-43.603-43.603v-77.04c0-34.694-26.243-63.375-59.921-67.237V15.899
				c39.296,3.904,70.085,37.154,70.085,77.46v328.549l11.646-6.746c6.643-3.848,14.179-5.881,21.792-5.881
				c24.043,0,43.603,19.56,43.603,43.603C380.924,476.924,361.364,496.485,337.322,496.485z"/>
			<path d="M174.679,419.445c-18.438,0-33.438,15-33.438,33.437c0,18.438,15,33.438,33.438,33.438s33.438-15,33.438-33.438
				C208.118,434.445,193.118,419.445,174.679,419.445z M174.679,470.805c-9.883,0-17.923-8.04-17.923-17.923
				c0-9.883,8.04-17.922,17.923-17.922c9.883,0,17.923,8.039,17.923,17.922C192.603,462.764,184.563,470.805,174.679,470.805z"/>
			<rect x="260.283" y="273.925" width="17.12" height="15.515"/>
		</g>
	</g>
</g>
<g>
</g>
<g>
</g>
<g>
</g>
<g>
</g>
<g>
</g>
<g>
</g>
<g>
</g>
<g>
</g>
<g>
</g>
<g>
</g>
<g>
</g>
<g>
</g>
<g>
</g>
<g>
</g>
<g>
</g>
</svg>
